<svg viewBox="0 0 56 56" fill="none" xmlns="http://www.w3.org/2000/svg">
<path fill-rule="evenodd" clip-rule="evenodd" d="M28 0C12.536 0 0 12.536 0 28C0 43.464 12.536 56 28 56C28.0184 56 28.0369 56 28.0553 55.9999H28V52C14.7452 52 4 41.2548 4 28C4 14.7452 14.7452 4 28 4V0Z" fill="url(#paint0_linear)"/>
<path d="M56 28C56 42.7914 44.5307 54.904 30.0003 55.9297C28.8985 56.0074 28 55.1046 28 54C28 52.8954 28.8986 52.0087 29.9994 51.9179C42.3187 50.9019 52 40.5815 52 28C52 14.7452 41.2548 4 28 4V0C43.464 0 56 12.536 56 28Z" fill="url(#paint1_linear)"/>
<defs>
<linearGradient id="paint0_linear" x1="0" y1="56" x2="0" y2="0" gradientUnits="userSpaceOnUse">
<stop stop-color="#20E79F" stop-opacity="0"/>
<stop offset="0.0476827" stop-color="#20E79F" stop-opacity="0"/>
<stop offset="0.952483" stop-color="#20E79F" stop-opacity="0.5"/>
<stop offset="1" stop-color="#20E79F" stop-opacity="0.5"/>
</linearGradient>
<linearGradient id="paint1_linear" x1="28" y1="56" x2="28" y2="0" gradientUnits="userSpaceOnUse">
<stop stop-color="#09A553"/>
<stop offset="0.0476827" stop-color="#38C96D"/>
<stop offset="0.952483" stop-color="#20E79F" stop-opacity="0.5"/>
<stop offset="1" stop-color="#20E79F" stop-opacity="0.5"/>
</linearGradient>
</defs>
</svg>
