<svg width="16" height="16" viewBox="0 0 16 16" fill="none" xmlns="http://www.w3.org/2000/svg"><g opacity=".6" fill="currentColor"><path d="M8.001.578c4.092 0 7.422 3.33 7.422 7.422S12.093 15.422 8 15.422C3.909 15.42.579 12.092.579 8S3.91.578 8.001.578zm0-.579C3.588-.001 0 3.587 0 8c0 4.41 3.588 8.001 8.001 8.001 4.41 0 8-3.588 8-8.001-.001-4.413-3.59-8.001-8-8.001z"/><path d="M14.055 9.86a.45.45 0 00-.282-.558c-.504-.186-1.388-.172-2.248-.159-.564.01-1.149.018-1.682-.023-2.887-.214-4.107-1.342-4.625-2.25-.63-1.106-.462-2.28-.13-2.95.7-1.397 2-1.98 2.94-2.223.037-.008.03-.027-.008-.027a6.41 6.41 0 00-3.105.795h-.004c-.591.365-1.037.705-1.327 1.012-.948 1.004-1.39 2.323-1.21 3.62.185 1.345 1.021 2.525 2.352 3.323 1.844 1.104 4.032 1.027 5.625.971.317-.011.607-.021.87-.021.708 0 1.14.075 1.305.413a.62.62 0 01.04.386c-.011.066.062.083.118.02.6-.678 1.109-1.466 1.371-2.33zm-3.495 3.947c-.064-.332-.914-.4-1.889-.479-.716-.058-1.53-.123-2.283-.307-2.394-.581-3.814-2.172-4.47-3.702-.064-.147-.122-.125-.087.031a6.31 6.31 0 003.789 4.51l.071.028.106.04.1.04c.038.011.053.017.068.023l.078.025.075.025c.025.01.05.015.073.023l.082.025a6.504 6.504 0 001.666.242h.068c.079 0 .143.002.206.003a6.497 6.497 0 002.347-.527z"/><path d="M6.958 4.14c-.197.72-.027 1.471.483 2.118 1.106 1.41 3.704 2.078 5.45 1.404.579-.224 1.025-.585 1.29-1.045a6.228 6.228 0 00-.616-1.635c-.165.183-.392.33-.672.432-.827.3-2.385.089-2.907-.546-.22-.269-.295-.582-.212-.881.102-.373.434-.688.913-.86.23-.082.753-.13 1.163-.121-.356-.255-.8-.518-1.327-.784a.808.808 0 00-.35-.089l-.127-.002c-.5 0-.968.083-1.392.245-.862.333-1.482.976-1.696 1.764z"/></g></svg>