<svg width="40" height="40" fill="none" xmlns="http://www.w3.org/2000/svg"><path d="M40 24.87c-.905-1.43-4.75-1.375-8.48-1.32h-5.456c-9.356-.742-13.313-4.314-14.981-7.062a9.924 9.924 0 01-.424-9.288 14.001 14.001 0 013.944-4.624A14.484 14.484 0 0120.185 0c-3.528-.014-7.001.847-10.091 2.5a21.439 21.439 0 00-4.382 3.216 13.673 13.673 0 00-3.27 5.272 13.376 13.376 0 00-.574 6.132 14.431 14.431 0 002.596 6.029 14.939 14.939 0 005.036 4.33c5.964 3.573 13.172 3.326 18.232 3.16h2.827c2.29 0 3.9.248 4.437 1.32a1.9 1.9 0 010 1.209c0 .192.198.247.368 0a19.615 19.615 0 004.523-8.244M27.798 38.32c-.194-1.082-2.78-1.31-6.032-1.566a46.366 46.366 0 01-7.2-1.054 20.238 20.238 0 01-8.536-4.277 20.89 20.89 0 01-5.724-7.77C0 23.17 0 23.256 0 23.769a20.796 20.796 0 004.265 8.935 20.128 20.128 0 007.855 5.845c3.24 1.342 5.949 1.406 7.339 1.406.294.03.59.046.89.046 2.575-.08 5.113-.66 7.477-1.709" fill="#fff"/><path d="M15.907 8.02a7.118 7.118 0 00-.06 3.542 7.346 7.346 0 001.66 3.171c2.27 2.31 5.188 3.955 8.41 4.743a18.35 18.35 0 009.776-.295c1.795-.602 3.316-1.772 4.306-3.315a19.226 19.226 0 00-2.066-5.166 5.514 5.514 0 01-2.24 1.354c-1.642.48-3.383.572-5.072.27a10.831 10.831 0 01-4.617-2.01 2.988 2.988 0 01-.71-1.3 2.889 2.889 0 01.011-1.463 4.307 4.307 0 011.109-1.71 4.614 4.614 0 011.801-1.052 14.344 14.344 0 013.87-.387 33.917 33.917 0 00-4.22-2.458 2.853 2.853 0 00-1.163-.277h-.495a13.539 13.539 0 00-4.655.774 9.092 9.092 0 00-3.514 2.126 8.487 8.487 0 00-2.131 3.399" fill="#fff"/></svg>