<svg width="40" height="40" fill="none" viewBox="0 0 40 40" xmlns="http://www.w3.org/2000/svg"><path fill-rule="evenodd" clip-rule="evenodd" d="M7.503 3.013a1.67 1.67 0 00-1.639-1.346H1.67c-.923 0-1.67.75-1.67 1.675a1.67 1.67 0 001.67 1.673h3.227l1.102 6.113.023.154.3 1.633.98 5.418h.02l1.035 5.595c.293 1.587 1.695 2.739 3.33 2.739h20.94c1.635 0 3.038-1.152 3.33-2.739l2.335-12.646c.283-1.535-.914-2.949-2.497-2.949H8.477l-.974-5.32zm4.164 27.404a2.918 2.918 0 010 5.833 2.918 2.918 0 010-5.833zm20 0a2.918 2.918 0 010 5.833 2.918 2.918 0 010-5.833z" fill="currentColor"/></svg>