<svg width="10" height="10" viewBox="0 0 10 10" fill="none" xmlns="http://www.w3.org/2000/svg">
<path fill-rule="evenodd" clip-rule="evenodd" d="M5 9C7.20914 9 9 7.20914 9 5C9 2.79086 7.20914 1 5 1C2.79086 1 1 2.79086 1 5C1 7.20914 2.79086 9 5 9ZM5 10C7.76142 10 10 7.76142 10 5C10 2.23858 7.76142 0 5 0C2.23858 0 0 2.23858 0 5C0 7.76142 2.23858 10 5 10ZM5 2.5C5.27614 2.5 5.5 2.72386 5.5 3V5H6C6.27614 5 6.5 5.22386 6.5 5.5C6.5 5.77614 6.27614 6 6 6H5C4.72386 6 4.5 5.77614 4.5 5.5V3C4.5 2.72386 4.72386 2.5 5 2.5Z" fill="white"/>
</svg>
