<svg width="12" height="17" fill="none" xmlns="http://www.w3.org/2000/svg"><path fill-rule="evenodd" clip-rule="evenodd" d="M.41.624C.286.868.286 1.189.286 1.829v12.583c0 .64 0 .96.124 1.205.11.215.285.39.5.499.244.125.564.125 1.204.125h.554c.64 0 .96 0 1.204-.125.215-.11.39-.284.5-.5.124-.244.124-.564.124-1.204V1.829c0-.64 0-.96-.124-1.205a1.143 1.143 0 00-.5-.5C3.628 0 3.308 0 2.668 0h-.554c-.64 0-.96 0-1.204.125-.215.11-.39.284-.5.499zm7.218 0c-.124.244-.124.565-.124 1.205v12.583c0 .64 0 .96.124 1.205.11.215.285.39.5.499.244.125.564.125 1.204.125h.554c.64 0 .96 0 1.204-.125.215-.11.39-.284.5-.5.124-.244.124-.564.124-1.204V1.829c0-.64 0-.96-.124-1.205a1.143 1.143 0 00-.5-.5C10.846 0 10.526 0 9.886 0h-.554c-.64 0-.96 0-1.204.125-.215.11-.39.284-.5.499z" fill="#fff"/></svg>