<svg width="28" height="31" fill="none" xmlns="http://www.w3.org/2000/svg"><path d="M14 3.751a.635.635 0 100 1.27c6.663 0 12.064 5.4 12.064 12.063S20.663 29.148 14 29.148c-6.662 0-12.063-5.401-12.063-12.064 0-1.973.474-3.877 1.368-5.586a.635.635 0 10-1.125-.59 13.277 13.277 0 00-1.513 6.176c0 7.364 5.97 13.334 13.333 13.334 7.364 0 13.334-5.97 13.334-13.334 0-7.363-5.97-13.333-13.334-13.333z" fill="#fff"/><path d="M10.38 4.051a.667.667 0 000 1.028l3.089 2.552a.667.667 0 001.091-.514V2.012a.667.667 0 00-1.091-.514l-3.09 2.553z" fill="#fff"/></svg>