<svg width="20" height="20" viewBox="0 0 20 20" fill="none" xmlns="http://www.w3.org/2000/svg">
<path fill-rule="evenodd" clip-rule="evenodd" d="M16.988 12.153L10.4867 16.9271C9.32521 17.78 7.69224 17.5299 6.83934 16.3684C6.51053 15.9207 6.33321 15.3796 6.33321 14.8241L6.33321 5.2758C6.33321 3.83481 7.50136 2.66667 8.94235 2.66667C9.49788 2.66666 10.0389 2.84398 10.4867 3.17279L16.988 7.94694C18.1494 8.79984 18.3996 10.4328 17.5467 11.5943C17.3899 11.8078 17.2015 11.9962 16.988 12.153ZM7.75624 14.8241C7.75624 15.0766 7.83683 15.3225 7.98629 15.526C8.37398 16.054 9.11624 16.1677 9.64417 15.78L16.1455 11.0058C16.2425 10.9346 16.3282 10.8489 16.3994 10.7519C16.7871 10.2239 16.6734 9.48168 16.1455 9.094L9.64417 4.31985C9.44064 4.17039 9.19472 4.08979 8.94221 4.08979C8.28722 4.08979 7.75624 4.62077 7.75624 5.27576L7.75624 14.8241Z" fill="white"/>
<rect x="18.0063" y="2.97974" width="1.66036" height="14.2317" rx="0.83018" fill="white"/>
</svg>
