<svg width="20" height="20" viewBox="0 0 20 20" fill="none" xmlns="http://www.w3.org/2000/svg">
<path fill-rule="evenodd" clip-rule="evenodd" d="M3.01203 12.153L9.51333 16.9271C10.6748 17.78 12.3078 17.5299 13.1607 16.3684C13.4895 15.9207 13.6668 15.3796 13.6668 14.8241L13.6668 5.2758C13.6668 3.83482 12.4986 2.66667 11.0576 2.66667C10.5021 2.66667 9.96109 2.84398 9.51333 3.17279L3.01203 7.94694C1.85057 8.79985 1.60044 10.4328 2.45334 11.5943C2.61013 11.8078 2.79852 11.9962 3.01203 12.153ZM12.2435 14.8241C12.2435 15.0766 12.163 15.3225 12.0135 15.5261C11.6258 16.054 10.8836 16.1677 10.3556 15.78L3.85432 11.0059C3.75727 10.9346 3.67164 10.849 3.60037 10.7519C3.21269 10.224 3.32638 9.48173 3.85432 9.09405L10.3556 4.3199C10.5591 4.17044 10.8051 4.08984 11.0576 4.08984C11.7126 4.08984 12.2435 4.62082 12.2435 5.27581L12.2435 14.8241Z" fill="white"/>
<rect width="1.66036" height="14.2317" rx="0.83018" transform="matrix(-1 0 0 1 1.99365 2.97961)" fill="white"/>
</svg>
