<svg width="24" height="24" viewBox="0 0 24 24" fill="none" xmlns="http://www.w3.org/2000/svg">
<path fill-rule="evenodd" clip-rule="evenodd" d="M13.9996 2.00012C13.9996 0.895553 13.1042 0.00012207 11.9996 0.00012207C10.895 0.00012207 9.99959 0.895553 9.99959 2.00012V10.0001H1.99959C0.895019 10.0001 -0.000411987 10.8956 -0.000411987 12.0001C-0.000411987 13.1047 0.895019 14.0001 1.99959 14.0001H9.99959V22.0001C9.99959 23.1047 10.895 24.0001 11.9996 24.0001C13.1042 24.0001 13.9996 23.1047 13.9996 22.0001V14.0001H21.9996C23.1042 14.0001 23.9996 13.1047 23.9996 12.0001C23.9996 10.8956 23.1042 10.0001 21.9996 10.0001H13.9996V2.00012Z" fill="white"/>
</svg>
