<svg width="36" height="36" viewBox="0 0 36 36" fill="none" xmlns="http://www.w3.org/2000/svg">
<circle cx="18" cy="18" r="18" fill="#080808" fill-opacity="0.75"/>
<path fill-rule="evenodd" clip-rule="evenodd" d="M12.7501 18.75L21.1276 18.75L17.4676 22.41C17.1751 22.7025 17.1751 23.1825 17.4676 23.475C17.7601 23.7675 18.2326 23.7675 18.5251 23.475L23.4676 18.5325C23.7601 18.24 23.7601 17.7675 23.4676 17.475L18.5251 12.5325C18.2326 12.24 17.7601 12.24 17.4676 12.5325C17.1751 12.825 17.1751 13.2975 17.4676 13.59L21.1276 17.25L12.7501 17.25C12.3376 17.25 12.0001 17.5875 12.0001 18C12.0001 18.4125 12.3376 18.75 12.7501 18.75Z" fill="white" fill-opacity="0.96"/>
</svg>
