<svg width="48" height="48" viewBox="0 0 48 48" fill="none" xmlns="http://www.w3.org/2000/svg">
<circle opacity="0.75" cx="24" cy="24" r="24" fill="#080808" fill-opacity="0.56"/>
<path fill-rule="evenodd" clip-rule="evenodd" d="M17 25L28.17 25L23.29 29.88C22.9 30.27 22.9 30.91 23.29 31.3C23.68 31.69 24.31 31.69 24.7 31.3L31.29 24.71C31.68 24.32 31.68 23.69 31.29 23.3L24.7 16.71C24.31 16.32 23.68 16.32 23.29 16.71C22.9 17.1 22.9 17.73 23.29 18.12L28.17 23L17 23C16.45 23 16 23.45 16 24C16 24.55 16.45 25 17 25Z" fill="white" fill-opacity="0.96"/>
</svg>
