<svg width="59" height="59" viewBox="0 0 59 59" fill="none" xmlns="http://www.w3.org/2000/svg">
<path d="M32.89 58.5449H8.77C3.935 58.5449 0 54.6149 0 49.7799V25.6599C0 20.8249 3.935 16.8899 8.77 16.8899V20.6149C5.99 20.6149 3.725 22.8799 3.725 25.6599V49.7799C3.725 52.5599 5.99 54.8249 8.77 54.8249H32.89C35.67 54.8249 37.935 52.5599 37.935 49.7799H41.66C41.655 54.6149 37.72 58.5449 32.89 58.5449Z" fill="#808080"/>
<path d="M49.0798 0.469971H21.5048C16.5448 0.469971 12.5098 4.50497 12.5098 9.46497V37.04C12.5098 42 16.5448 46.035 21.5048 46.035H49.0798C54.0398 46.035 58.0748 42 58.0748 37.04V9.46497C58.0748 4.50497 54.0398 0.469971 49.0798 0.469971ZM55.4548 20.025C47.5648 20.025 41.1648 26.425 41.1648 34.315H38.6248C38.6248 26.425 32.2248 20.025 24.3348 20.025V17.485C32.2248 17.485 38.6248 11.085 38.6248 3.19497H41.1648C41.1648 11.085 47.5648 17.485 55.4548 17.485V20.025Z" fill="#808080"/>
</svg>
