<svg width="166" height="166" viewBox="0 0 166 166" fill="none" xmlns="http://www.w3.org/2000/svg">
<rect width="166" height="166" fill="#F0F0F0"/>
<g opacity="0.75">
<path fill-rule="evenodd" clip-rule="evenodd" d="M72.615 64.1865C71.447 64.1865 70.5002 65.1333 70.5002 66.3013C70.5002 67.4692 71.447 68.416 72.615 68.416H93.3855C94.5534 68.416 95.5002 67.4692 95.5002 66.3013C95.5002 65.1333 94.5534 64.1865 93.3855 64.1865H72.615ZM66.3336 72.5512C66.3336 71.3833 67.2804 70.4365 68.4484 70.4365H97.5522C98.7202 70.4365 99.667 71.3833 99.667 72.5512C99.667 73.7192 98.7202 74.666 97.5522 74.666H68.4484C67.2804 74.666 66.3336 73.7192 66.3336 72.5512ZM62.167 80.9791C62.167 78.6432 64.0606 76.7496 66.3965 76.7496H99.6042C101.94 76.7496 103.834 78.6432 103.834 80.9791V97.5201C103.834 99.856 101.94 101.75 99.6042 101.75H66.3965C64.0606 101.75 62.167 99.856 62.167 97.5201V80.9791Z" fill="#080808" fill-opacity="0.28"/>
</g>
</svg>
