<svg width="160" height="160" fill="none" xmlns="http://www.w3.org/2000/svg"><path d="M76.19 45.714a3.81 3.81 0 117.62 0V91.43a3.81 3.81 0 01-7.62 0V45.714zM74.286 108.571a5.715 5.715 0 1111.429.001 5.715 5.715 0 01-11.43-.001z" fill="#D63333"/><path fill-rule="evenodd" clip-rule="evenodd" d="M80 152.381c39.975 0 72.381-32.406 72.381-72.381S119.975 7.619 80 7.619 7.619 40.025 7.619 80 40.025 152.381 80 152.381zM80 160c44.183 0 80-35.817 80-80S124.183 0 80 0 0 35.817 0 80s35.817 80 80 80z" fill="#D63333"/></svg>